<?xml version="1.0" encoding="UTF-8"?>
<svg width="512px" height="521px" viewBox="0 0 512 521" version="1.1" xmlns="http://www.w3.org/2000/svg" xmlns:xlink="http://www.w3.org/1999/xlink">
    <title>Frame</title>
    <g id="Frame" stroke="none" fill="none" fill-rule="evenodd">
        <path d="M256,0 C397.384896,0 512,114.615104 512,256 L512,258 C512,399.384896 397.384896,514 256,514 C114.615104,514 0,399.384896 0,258 L0,256 C0,114.615104 114.615104,0 256,0 Z" id="Path" fill="#000000"></path>
        <path d="M122.666667,161 C122.666667,170.204746 130.128588,177.666667 139.333333,177.666667 C148.538079,177.666667 156,185.128588 156,194.333333 L156,361 C156,370.204746 163.461921,377.666667 172.666667,377.666667 C181.871412,377.666667 189.333333,370.204746 189.333333,361 L189.333333,197.666667 C189.333333,186.620972 198.287638,177.666667 209.333333,177.666667 L269.333333,177.666667 C280.379028,177.666667 289.333333,186.620972 289.333333,197.666667 L289.333333,327.666667 C289.333333,355.280904 311.719096,377.666667 339.333333,377.666667 C360.123227,377.666667 377.949563,364.978166 385.490735,346.922768 C389.314587,337.76754 382.592431,327.666667 372.670736,327.666667 L372.662598,327.666667 C364.797026,327.666667 357.392973,331.371841 352.671094,337.662396 C349.630604,341.712981 344.787977,344.333333 339.333333,344.333333 C330.128588,344.333333 322.666667,336.871412 322.666667,327.666667 L322.666667,194.333333 C322.666667,185.128588 330.128588,177.666667 339.333333,177.666667 C348.538079,177.666667 356,170.204746 356,161 L356,161 C356,151.795254 348.538079,144.333333 339.333333,144.333333 L139.333334,144.333333 C130.128588,144.333333 122.666667,151.795254 122.666667,161 Z" id="Path" fill="#FFFFFF"></path>
    </g>
</svg>